<?xml version="1.0" encoding="UTF-8" standalone="no"?>
<svg
   xmlns:dc="http://purl.org/dc/elements/1.1/"
   xmlns:cc="http://creativecommons.org/ns#"
   xmlns:rdf="http://www.w3.org/1999/02/22-rdf-syntax-ns#"
   xmlns:svg="http://www.w3.org/2000/svg"
   xmlns="http://www.w3.org/2000/svg"
   xmlns:sodipodi="http://sodipodi.sourceforge.net/DTD/sodipodi-0.dtd"
   xmlns:inkscape="http://www.inkscape.org/namespaces/inkscape"
   version="1.1"
   x="0px"
   y="0px"
   viewBox="0 0 70 87.5"
   style="enable-background:new 0 0 70 70;"
   xml:space="preserve"
   id="svg994"
   sodipodi:docname="resume.svg"
   inkscape:version="1.0.1 (1.0.1+r74)"><metadata
     id="metadata1000"><rdf:RDF><cc:Work
         rdf:about=""><dc:format>image/svg+xml</dc:format><dc:type
           rdf:resource="http://purl.org/dc/dcmitype/StillImage" /></cc:Work></rdf:RDF></metadata><defs
     id="defs998" /><sodipodi:namedview
     pagecolor="#ffffff"
     bordercolor="#666666"
     borderopacity="1"
     objecttolerance="10"
     gridtolerance="10"
     guidetolerance="10"
     inkscape:pageopacity="0"
     inkscape:pageshadow="2"
     inkscape:window-width="1920"
     inkscape:window-height="1016"
     id="namedview996"
     showgrid="false"
     inkscape:zoom="9.7371429"
     inkscape:cx="35"
     inkscape:cy="84.829812"
     inkscape:window-x="0"
     inkscape:window-y="27"
     inkscape:window-maximized="1"
     inkscape:current-layer="svg994" /><path
     d="M61.8203125,67V3c0-0.5522461-0.4472656-1-1-1H23.9501953c-0.0219116,0-0.0402222,0.0110474-0.0617676,0.0124512  c-0.0907593,0.0057373-0.1781006,0.0233765-0.2639771,0.0532837c-0.0325928,0.0114136-0.0647583,0.0198975-0.0957642,0.0344849  c-0.0986328,0.0460815-0.19104,0.1051636-0.2719116,0.1833496c-0.0045776,0.0044556-0.0107422,0.0068359-0.0151978,0.0113525  c-0.0004272,0.0004272-0.0009155,0.0005493-0.0013428,0.0009766L8.4732666,17.1922607  C8.4727783,17.192749,8.47229,17.1931763,8.4718018,17.1936646l-0.0020752,0.0021362  c-0.0830078,0.0837402-0.1433716,0.1816406-0.1912231,0.2848511c-0.0142822,0.0305176-0.0220947,0.062439-0.0332642,0.0945435  c-0.029541,0.0853271-0.0471802,0.1720581-0.0529175,0.262207c-0.0014038,0.0217896-0.0126343,0.0403442-0.0126343,0.0625V67  c0,0.5522461,0.4472656,1,1,1h51.640625C61.3730469,68,61.8203125,67.5522461,61.8203125,67z M22.9501953,5.4291992v11.4692383  l-11.3710938,0.0014648L22.9501953,5.4291992z M59.8203125,66h-49.640625V18.8997803l13.7705078-0.0013428  c0.5527344,0,1-0.4477539,1-1V4h34.8701172V66z"
     id="path974" /><path
     d="M30.9482422,33.1337891H54.40625c0.5527344,0,1-0.4477539,1-1v-23.625c0-0.5522461-0.4472656-1-1-1H30.9482422  c-0.5527344,0-1,0.4477539-1,1v23.625C29.9482422,32.6860352,30.3955078,33.1337891,30.9482422,33.1337891z M31.9482422,9.5087891  H53.40625v21.625H31.9482422V9.5087891z"
     id="path976" /><path
     d="M46.4277344,19.5595703c-0.0216675-0.0057373-0.0427246,0.0004883-0.0643921-0.0037842  c-0.0692749-0.0135498-0.1358643-0.0134277-0.2053833-0.012146c-0.062439,0.0010376-0.1225586-0.000061-0.1826782,0.0124512  c-0.0628662,0.0129395-0.1192627,0.0378418-0.1786499,0.0625c-0.0593872,0.0247803-0.1168823,0.0472412-0.1704102,0.0828857  c-0.0516357,0.0341797-0.093689,0.0780029-0.138855,0.1220093c-0.0491333,0.0478516-0.0957642,0.0941772-0.1345825,0.1519775  c-0.0127563,0.0189209-0.0325317,0.0299072-0.0441895,0.0499268c-0.5400391,0.9311523-1.5498047,1.5097656-2.6357422,1.5097656  s-2.0966797-0.5786133-2.6367188-1.5102539c-0.0115967-0.0200195-0.0313721-0.0308838-0.0441284-0.0498047  c-0.0388794-0.0579224-0.0856323-0.1043701-0.1348877-0.1522217c-0.0446777-0.043396-0.0861816-0.0870361-0.137207-0.1207886  c-0.0548096-0.0366211-0.1138306-0.0596313-0.1748047-0.0848389c-0.0574341-0.0235596-0.1118774-0.0478516-0.1726074-0.0604248  c-0.0628052-0.0131836-0.1257935-0.012146-0.1911011-0.0128174c-0.0666504-0.0008545-0.1305542-0.0011597-0.1970215,0.0115967  c-0.0227051,0.0043945-0.0446777-0.0020752-0.0673828,0.0039673c-2.5830078,0.6777344-4.3867188,3.0791016-4.3867188,5.8393555  v3.125c0,0.5522461,0.4472656,1,1,1h14.2939453c0.5527344,0,1-0.4477539,1-1v-3.125  C50.8242188,22.6401367,49.0166016,20.2387695,46.4277344,19.5595703z M48.8242188,27.5239258H36.5302734v-2.125  c0-1.616394,0.9072876-3.0441895,2.2709351-3.678894c0.9482422,1.131958,2.3630981,1.8151245,3.8716431,1.8151245  s2.9240112-0.6831665,3.8713989-1.8154297c1.3690796,0.6353149,2.2799683,2.0634766,2.2799683,3.6791992V27.5239258z"
     id="path978" /><path
     d="M42.6728516,19.7436523c2.3779297,0,4.3125-1.9345703,4.3125-4.3125s-1.9345703-4.3125-4.3125-4.3125  s-4.3125,1.9345703-4.3125,4.3125S40.2949219,19.7436523,42.6728516,19.7436523z M42.6728516,13.1186523  c1.2753906,0,2.3125,1.0375977,2.3125,2.3125s-1.0371094,2.3125-2.3125,2.3125s-2.3125-1.0375977-2.3125-2.3125  S41.3974609,13.1186523,42.6728516,13.1186523z"
     id="path980" /><path
     d="M54.40625,37.4077148H19.7607422c-0.5527344,0-1,0.4477539-1,1s0.4472656,1,1,1H54.40625c0.5527344,0,1-0.4477539,1-1  S54.9589844,37.4077148,54.40625,37.4077148z"
     id="path982" /><path
     d="M54.40625,45.1020508H27.1767578c-0.5527344,0-1,0.4477539-1,1s0.4472656,1,1,1H54.40625c0.5527344,0,1-0.4477539,1-1  S54.9589844,45.1020508,54.40625,45.1020508z"
     id="path984" /><path
     d="M54.40625,52.796875h-31.5625c-0.5527344,0-1,0.4477539-1,1s0.4472656,1,1,1h31.5625c0.5527344,0,1-0.4477539,1-1  S54.9589844,52.796875,54.40625,52.796875z"
     id="path986" /><path
     d="M54.40625,60.4912109h-38.8125c-0.5527344,0-1,0.4477539-1,1s0.4472656,1,1,1h38.8125c0.5527344,0,1-0.4477539,1-1  S54.9589844,60.4912109,54.40625,60.4912109z"
     id="path988" /></svg>
